<svg width="44" height="44" viewBox="0 0 44 44" fill="none" xmlns="http://www.w3.org/2000/svg">
<circle cx="22" cy="22" r="22" fill="#FFF4E6"/>
<path d="M16 31V29C16 27.9391 16.4214 26.9217 17.1716 26.1716C17.9217 25.4214 18.9391 25 20 25H24C25.0609 25 26.0783 25.4214 26.8284 26.1716C27.5786 26.9217 28 27.9391 28 29V31M26 17C26 19.2091 24.2091 21 22 21C19.7909 21 18 19.2091 18 17C18 14.7909 19.7909 13 22 13C24.2091 13 26 14.7909 26 17Z" stroke="#E8590C" stroke-width="2" stroke-linecap="round" stroke-linejoin="round"/>
</svg>
