<svg width="134" height="44" viewBox="0 0 134 44" fill="none" xmlns="http://www.w3.org/2000/svg">
<circle cx="22" cy="22" r="22" fill="#FFF4E6"/>
<path d="M11.4488 28.6714L11.4488 28.6717C11.4495 29.3686 11.7267 30.0366 12.2194 30.5293C12.7121 31.022 13.3802 31.2992 14.077 31.3H14.0773L29.9226 31.3L29.923 31.3C30.6198 31.2992 31.2878 31.0221 31.7805 30.5293C32.2733 30.0366 32.5504 29.3686 32.5512 28.6717V28.6714V26.4125C32.8849 26.2508 33.1677 25.9976 33.3652 25.6803C33.6011 25.3016 33.7016 24.8542 33.6504 24.411C33.5992 23.9678 33.3992 23.555 33.0832 23.2401C32.834 22.9918 32.5243 22.8159 32.1872 22.7283C32.3557 16.7145 27.352 12.2359 21.3903 12.7385C20.0803 12.7463 18.7855 13.0209 17.585 13.5456C16.3808 14.072 15.2969 14.8389 14.3999 15.7994C13.5029 16.7598 12.8116 17.8935 12.3686 19.1308C11.9555 20.2846 11.7663 21.5058 11.8104 22.729C11.4742 22.8169 11.1654 22.9925 10.9169 23.2402C10.6009 23.5551 10.401 23.9678 10.3498 24.411C10.2985 24.8541 10.3991 25.3016 10.6349 25.6803C10.8324 25.9975 11.1152 26.2507 11.4488 26.4125L11.4488 28.6714ZM30.7484 22.6178L13.2653 22.6178L13.2653 22.3203C13.2653 22.3202 13.2653 22.32 13.2653 22.3199C13.281 17.2859 17.6204 13.7239 22.5684 14.1795L22.5815 14.1807L22.5945 14.1807C23.7116 14.1859 24.8158 14.4194 25.8393 14.8669C26.8628 15.3143 27.784 15.9663 28.5464 16.7828C29.3088 17.5992 29.8962 18.5629 30.2726 19.6146C30.6174 20.578 30.7785 21.5967 30.7484 22.6178ZM32.229 24.6424L32.2284 24.6515L32.2284 24.6605C32.2283 24.7944 32.1751 24.9228 32.0805 25.0174C31.9858 25.1121 31.8575 25.1654 31.7236 25.1656H12.2816C12.1452 25.16 12.016 25.1022 11.921 25.0039C11.8249 24.9047 11.7712 24.7719 11.7712 24.6338C11.7712 24.4957 11.8249 24.3629 11.921 24.2637C12.016 24.1654 12.1452 24.1076 12.2816 24.102H31.7233C31.7924 24.1024 31.8608 24.1168 31.9241 24.1444C31.9877 24.1721 32.0449 24.2125 32.0923 24.2631C32.1397 24.3137 32.1763 24.3735 32.1998 24.4387C32.2233 24.5039 32.2332 24.5732 32.229 24.6424ZM31.1089 28.6711C31.1086 28.9857 30.9835 29.2873 30.761 29.5098C30.5386 29.7323 30.2369 29.8574 29.9223 29.8577H14.0777C13.763 29.8574 13.4614 29.7323 13.2389 29.5098C13.0165 29.2873 12.8914 28.9857 12.891 28.6711V26.6498H31.1089V28.6711Z" fill="#E8590C" stroke="#E8590C" stroke-width="0.6"/>
<path d="M52.6392 18.1911V15.9091H63.3906V18.1911H59.3828V29H56.647V18.1911H52.6392ZM66.5739 29.1854C65.9474 29.1854 65.3892 29.0767 64.8991 28.8594C64.4091 28.6378 64.0213 28.3118 63.7358 27.8814C63.4545 27.4467 63.3139 26.9055 63.3139 26.2578C63.3139 25.7124 63.4141 25.2543 63.6143 24.8835C63.8146 24.5128 64.0874 24.2145 64.4325 23.9886C64.7777 23.7628 65.1697 23.5923 65.6087 23.4773C66.0518 23.3622 66.5163 23.2812 67.0021 23.2344C67.5732 23.1747 68.0334 23.1193 68.3828 23.0682C68.7322 23.0128 68.9858 22.9318 69.1435 22.8253C69.3011 22.7187 69.38 22.5611 69.38 22.3523V22.3139C69.38 21.9091 69.2521 21.5959 68.9964 21.3743C68.745 21.1527 68.3871 21.0419 67.9226 21.0419C67.4325 21.0419 67.0426 21.1506 66.7528 21.3679C66.4631 21.581 66.2713 21.8494 66.1776 22.1733L63.6591 21.9688C63.7869 21.3722 64.0384 20.8565 64.4134 20.4219C64.7884 19.983 65.272 19.6463 65.8643 19.4119C66.4609 19.1733 67.1513 19.054 67.9354 19.054C68.4808 19.054 69.0028 19.1179 69.5014 19.2457C70.0043 19.3736 70.4496 19.5717 70.8374 19.8402C71.2294 20.1087 71.5384 20.4538 71.7642 20.8757C71.9901 21.2933 72.103 21.794 72.103 22.3778V29H69.5206V27.6385H69.4439C69.2862 27.9453 69.0753 28.2159 68.8111 28.4503C68.5469 28.6804 68.2294 28.8615 67.8587 28.9936C67.4879 29.1214 67.0597 29.1854 66.5739 29.1854ZM67.3537 27.3061C67.7543 27.3061 68.108 27.2273 68.4148 27.0696C68.7216 26.9077 68.9624 26.6903 69.1371 26.4176C69.3118 26.1449 69.3991 25.8359 69.3991 25.4908V24.4489C69.3139 24.5043 69.1967 24.5554 69.0476 24.6023C68.9027 24.6449 68.7386 24.6854 68.5554 24.7237C68.3722 24.7578 68.1889 24.7898 68.0057 24.8196C67.8224 24.8452 67.6562 24.8686 67.5071 24.8899C67.1875 24.9368 66.9084 25.0114 66.6697 25.1136C66.4311 25.2159 66.2457 25.3544 66.1136 25.5291C65.9815 25.6996 65.9155 25.9126 65.9155 26.1683C65.9155 26.5391 66.0497 26.8224 66.3182 27.0185C66.5909 27.2102 66.9361 27.3061 67.3537 27.3061ZM74.2156 29V19.1818H76.8107V20.9141H76.9258C77.1303 20.3388 77.4712 19.8849 77.9485 19.5526C78.4258 19.2202 78.9968 19.054 79.6616 19.054C80.3349 19.054 80.908 19.2223 81.381 19.5589C81.854 19.8913 82.1694 20.343 82.3271 20.9141H82.4293C82.6296 20.3516 82.9918 19.902 83.516 19.5653C84.0444 19.2244 84.6687 19.054 85.3889 19.054C86.305 19.054 87.0487 19.3459 87.6197 19.9297C88.195 20.5092 88.4826 21.3317 88.4826 22.397V29H85.766V22.9339C85.766 22.3885 85.6211 21.9794 85.3313 21.7067C85.0415 21.4339 84.6793 21.2976 84.2447 21.2976C83.7504 21.2976 83.3647 21.4553 83.0877 21.7706C82.8107 22.0817 82.6722 22.4929 82.6722 23.0043V29H80.0323V22.8764C80.0323 22.3949 79.8938 22.0114 79.6168 21.7259C79.3441 21.4403 78.984 21.2976 78.5366 21.2976C78.234 21.2976 77.9613 21.3743 77.7184 21.5277C77.4798 21.6768 77.2901 21.8878 77.1495 22.1605C77.0089 22.429 76.9386 22.7443 76.9386 23.1065V29H74.2156ZM93.4332 29.1854C92.8068 29.1854 92.2486 29.0767 91.7585 28.8594C91.2685 28.6378 90.8807 28.3118 90.5952 27.8814C90.3139 27.4467 90.1733 26.9055 90.1733 26.2578C90.1733 25.7124 90.2734 25.2543 90.4737 24.8835C90.674 24.5128 90.9467 24.2145 91.2919 23.9886C91.6371 23.7628 92.0291 23.5923 92.468 23.4773C92.9112 23.3622 93.3757 23.2812 93.8615 23.2344C94.4325 23.1747 94.8928 23.1193 95.2422 23.0682C95.5916 23.0128 95.8452 22.9318 96.0028 22.8253C96.1605 22.7187 96.2393 22.5611 96.2393 22.3523V22.3139C96.2393 21.9091 96.1115 21.5959 95.8558 21.3743C95.6044 21.1527 95.2464 21.0419 94.782 21.0419C94.2919 21.0419 93.902 21.1506 93.6122 21.3679C93.3224 21.581 93.1307 21.8494 93.0369 22.1733L90.5185 21.9688C90.6463 21.3722 90.8977 20.8565 91.2727 20.4219C91.6477 19.983 92.1314 19.6463 92.7237 19.4119C93.3203 19.1733 94.0107 19.054 94.7947 19.054C95.3402 19.054 95.8622 19.1179 96.3608 19.2457C96.8636 19.3736 97.3089 19.5717 97.6967 19.8402C98.0888 20.1087 98.3977 20.4538 98.6236 20.8757C98.8494 21.2933 98.9624 21.794 98.9624 22.3778V29H96.38V27.6385H96.3033C96.1456 27.9453 95.9347 28.2159 95.6705 28.4503C95.4062 28.6804 95.0888 28.8615 94.718 28.9936C94.3473 29.1214 93.919 29.1854 93.4332 29.1854ZM94.2131 27.3061C94.6136 27.3061 94.9673 27.2273 95.2741 27.0696C95.581 26.9077 95.8217 26.6903 95.9964 26.4176C96.1712 26.1449 96.2585 25.8359 96.2585 25.4908V24.4489C96.1733 24.5043 96.0561 24.5554 95.907 24.6023C95.7621 24.6449 95.598 24.6854 95.4148 24.7237C95.2315 24.7578 95.0483 24.7898 94.8651 24.8196C94.6818 24.8452 94.5156 24.8686 94.3665 24.8899C94.0469 24.9368 93.7678 25.0114 93.5291 25.1136C93.2905 25.2159 93.1051 25.3544 92.973 25.5291C92.8409 25.6996 92.7749 25.9126 92.7749 26.1683C92.7749 26.5391 92.9091 26.8224 93.1776 27.0185C93.4503 27.2102 93.7955 27.3061 94.2131 27.3061ZM103.798 23.3239V29H101.075V19.1818H103.67V20.9141H103.785C104.002 20.343 104.367 19.8913 104.878 19.5589C105.39 19.2223 106.01 19.054 106.738 19.054C107.42 19.054 108.015 19.2031 108.522 19.5014C109.029 19.7997 109.423 20.2259 109.704 20.7798C109.985 21.3295 110.126 21.9858 110.126 22.7486V29H107.403V23.2344C107.407 22.6335 107.254 22.1648 106.943 21.8281C106.632 21.4872 106.203 21.3168 105.658 21.3168C105.292 21.3168 104.968 21.3956 104.686 21.5533C104.409 21.7109 104.192 21.9411 104.034 22.2436C103.881 22.5419 103.802 22.902 103.798 23.3239ZM114.995 23.3239V29H112.272V15.9091H114.919V20.9141H115.034C115.255 20.3345 115.613 19.8807 116.107 19.5526C116.602 19.2202 117.222 19.054 117.968 19.054C118.649 19.054 119.244 19.2031 119.751 19.5014C120.262 19.7955 120.659 20.2195 120.94 20.7734C121.225 21.3232 121.366 21.9815 121.362 22.7486V29H118.639V23.2344C118.643 22.6293 118.49 22.1584 118.178 21.8217C117.872 21.4851 117.441 21.3168 116.887 21.3168C116.517 21.3168 116.188 21.3956 115.903 21.5533C115.622 21.7109 115.4 21.9411 115.238 22.2436C115.08 22.5419 114.999 22.902 114.995 23.3239ZM127.941 29.1918C126.948 29.1918 126.089 28.9808 125.365 28.5589C124.645 28.1328 124.088 27.5405 123.696 26.782C123.304 26.0192 123.108 25.1349 123.108 24.1293C123.108 23.1151 123.304 22.2287 123.696 21.4702C124.088 20.7074 124.645 20.1151 125.365 19.6932C126.089 19.267 126.948 19.054 127.941 19.054C128.934 19.054 129.79 19.267 130.51 19.6932C131.235 20.1151 131.793 20.7074 132.185 21.4702C132.577 22.2287 132.773 23.1151 132.773 24.1293C132.773 25.1349 132.577 26.0192 132.185 26.782C131.793 27.5405 131.235 28.1328 130.51 28.5589C129.79 28.9808 128.934 29.1918 127.941 29.1918ZM127.953 27.0824C128.405 27.0824 128.782 26.9545 129.085 26.6989C129.387 26.4389 129.615 26.0852 129.769 25.6378C129.926 25.1903 130.005 24.6811 130.005 24.1101C130.005 23.5391 129.926 23.0298 129.769 22.5824C129.615 22.1349 129.387 21.7812 129.085 21.5213C128.782 21.2614 128.405 21.1314 127.953 21.1314C127.498 21.1314 127.114 21.2614 126.803 21.5213C126.496 21.7812 126.264 22.1349 126.106 22.5824C125.953 23.0298 125.876 23.5391 125.876 24.1101C125.876 24.6811 125.953 25.1903 126.106 25.6378C126.264 26.0852 126.496 26.4389 126.803 26.6989C127.114 26.9545 127.498 27.0824 127.953 27.0824Z" fill="black"/>
</svg>
