<svg width="145" height="45" viewBox="0 0 145 45" fill="none" xmlns="http://www.w3.org/2000/svg">
<circle cx="22" cy="22.1073" r="22" fill="#FFF4E6"/>
<path d="M18 27.9384C14.97 27.7424 13 25.6294 13 22.5584C13 18.2514 15.75 13.9334 18.5 13.9384C21.114 13.9434 23.748 17.8534 24 21.9384M23 31.9384C20 31.9384 18.132 29.8204 18.005 26.9384C18 23.9384 20 21.9384 23 21.9384C27 21.9384 31.01 24.4384 31.005 26.9384C31 29.4384 27 31.9384 23 31.9384Z" stroke="#E8590C" stroke-width="2" stroke-linecap="round" stroke-linejoin="round"/>
<path d="M55.3942 29.1073H52.4283L56.9474 16.0164H60.5142L65.027 29.1073H62.0611L58.782 19.0079H58.6797L55.3942 29.1073ZM55.2088 23.9617H62.2145V26.1222H55.2088V23.9617ZM69.7124 29.2671C68.9666 29.2671 68.2912 29.0753 67.6861 28.6918C67.0852 28.304 66.608 27.7351 66.2543 26.9851C65.9048 26.2309 65.7301 25.3062 65.7301 24.211C65.7301 23.086 65.9112 22.1506 66.2734 21.4049C66.6357 20.6549 67.1172 20.0945 67.718 19.7238C68.3232 19.3488 68.9858 19.1613 69.706 19.1613C70.2557 19.1613 70.7138 19.255 71.0803 19.4425C71.451 19.6258 71.7493 19.8559 71.9751 20.1329C72.2053 20.4056 72.38 20.6741 72.4993 20.9383H72.5824V16.0164H75.299V29.1073H72.6143V27.5349H72.4993C72.3714 27.8076 72.1903 28.0782 71.956 28.3466C71.7259 28.6109 71.4254 28.8303 71.0547 29.005C70.6882 29.1797 70.2408 29.2671 69.7124 29.2671ZM70.5753 27.1002C71.0142 27.1002 71.3849 26.9809 71.6875 26.7422C71.9943 26.4993 72.2287 26.1606 72.3906 25.7259C72.5568 25.2912 72.6399 24.782 72.6399 24.1982C72.6399 23.6144 72.5589 23.1073 72.397 22.6769C72.2351 22.2465 72.0007 21.9141 71.6939 21.6797C71.3871 21.4454 71.0142 21.3282 70.5753 21.3282C70.1278 21.3282 69.7507 21.4496 69.4439 21.6925C69.1371 21.9354 68.9048 22.2721 68.7472 22.7025C68.5895 23.1329 68.5107 23.6314 68.5107 24.1982C68.5107 24.7692 68.5895 25.2742 68.7472 25.7131C68.9091 26.1478 69.1413 26.4887 69.4439 26.7359C69.7507 26.9787 70.1278 27.1002 70.5753 27.1002ZM77.5378 29.1073V19.2891H80.2608V29.1073H77.5378ZM78.9057 18.0235C78.5009 18.0235 78.1536 17.8893 77.8638 17.6208C77.5783 17.3481 77.4355 17.0221 77.4355 16.6428C77.4355 16.2678 77.5783 15.9461 77.8638 15.6776C78.1536 15.4049 78.5009 15.2685 78.9057 15.2685C79.3105 15.2685 79.6557 15.4049 79.9412 15.6776C80.231 15.9461 80.3759 16.2678 80.3759 16.6428C80.3759 17.0221 80.231 17.3481 79.9412 17.6208C79.6557 17.8893 79.3105 18.0235 78.9057 18.0235ZM86.8782 29.2991C85.8725 29.2991 85.0075 29.086 84.283 28.6599C83.5629 28.2295 83.0089 27.6329 82.6211 26.8701C82.2376 26.1073 82.0458 25.2295 82.0458 24.2366C82.0458 23.2309 82.2397 22.3488 82.6275 21.5903C83.0195 20.8275 83.5756 20.233 84.2958 19.8069C85.016 19.3765 85.8725 19.1613 86.8654 19.1613C87.7219 19.1613 88.4719 19.3168 89.1154 19.6279C89.7589 19.939 90.2681 20.3758 90.6431 20.9383C91.0181 21.5008 91.2248 22.1613 91.2631 22.9198H88.6935C88.6211 22.4297 88.4293 22.0356 88.1183 21.7373C87.8114 21.4347 87.4087 21.2834 86.9102 21.2834C86.4883 21.2834 86.1197 21.3985 85.8043 21.6286C85.4933 21.8545 85.2504 22.1847 85.0756 22.6194C84.9009 23.054 84.8136 23.5803 84.8136 24.1982C84.8136 24.8246 84.8988 25.3573 85.0692 25.7962C85.244 26.2351 85.489 26.5697 85.8043 26.7998C86.1197 27.0299 86.4883 27.1449 86.9102 27.1449C87.2212 27.1449 87.5004 27.081 87.7475 26.9532C87.9989 26.8253 88.2056 26.64 88.3675 26.3971C88.5337 26.1499 88.6424 25.8537 88.6935 25.5086H91.2631C91.2205 26.2586 91.016 26.9191 90.6495 27.4901C90.2873 28.0569 89.7866 28.5001 89.1474 28.8197C88.5082 29.1393 87.7518 29.2991 86.8782 29.2991ZM93.0066 29.1073V19.2891H95.7296V29.1073H93.0066ZM94.3745 18.0235C93.9696 18.0235 93.6223 17.8893 93.3326 17.6208C93.0471 17.3481 92.9043 17.0221 92.9043 16.6428C92.9043 16.2678 93.0471 15.9461 93.3326 15.6776C93.6223 15.4049 93.9696 15.2685 94.3745 15.2685C94.7793 15.2685 95.1245 15.4049 95.41 15.6776C95.6998 15.9461 95.8446 16.2678 95.8446 16.6428C95.8446 17.0221 95.6998 17.3481 95.41 17.6208C95.1245 17.8893 94.7793 18.0235 94.3745 18.0235ZM102.347 29.2991C101.354 29.2991 100.495 29.0881 99.771 28.6662C99.0508 28.2401 98.4947 27.6478 98.1026 26.8893C97.7106 26.1265 97.5146 25.2422 97.5146 24.2366C97.5146 23.2224 97.7106 22.336 98.1026 21.5775C98.4947 20.8147 99.0508 20.2224 99.771 19.8005C100.495 19.3743 101.354 19.1613 102.347 19.1613C103.34 19.1613 104.196 19.3743 104.917 19.8005C105.641 20.2224 106.199 20.8147 106.591 21.5775C106.983 22.336 107.179 23.2224 107.179 24.2366C107.179 25.2422 106.983 26.1265 106.591 26.8893C106.199 27.6478 105.641 28.2401 104.917 28.6662C104.196 29.0881 103.34 29.2991 102.347 29.2991ZM102.36 27.1897C102.811 27.1897 103.189 27.0618 103.491 26.8062C103.794 26.5462 104.022 26.1925 104.175 25.7451C104.333 25.2976 104.412 24.7884 104.412 24.2174C104.412 23.6464 104.333 23.1371 104.175 22.6897C104.022 22.2422 103.794 21.8885 103.491 21.6286C103.189 21.3687 102.811 21.2387 102.36 21.2387C101.904 21.2387 101.52 21.3687 101.209 21.6286C100.902 21.8885 100.67 22.2422 100.512 22.6897C100.359 23.1371 100.282 23.6464 100.282 24.2174C100.282 24.7884 100.359 25.2976 100.512 25.7451C100.67 26.1925 100.902 26.5462 101.209 26.8062C101.52 27.0618 101.904 27.1897 102.36 27.1897ZM111.673 23.4312V29.1073H108.95V19.2891H111.545V21.0214H111.66C111.877 20.4503 112.242 19.9986 112.753 19.6662C113.265 19.3296 113.885 19.1613 114.613 19.1613C115.295 19.1613 115.89 19.3104 116.397 19.6087C116.904 19.907 117.298 20.3332 117.579 20.8871C117.86 21.4368 118.001 22.0931 118.001 22.8559V29.1073H115.278V23.3417C115.282 22.7408 115.129 22.2721 114.818 21.9354C114.507 21.5945 114.078 21.4241 113.533 21.4241C113.167 21.4241 112.843 21.5029 112.561 21.6606C112.284 21.8182 112.067 22.0484 111.909 22.3509C111.756 22.6492 111.677 23.0093 111.673 23.4312ZM122.947 29.2927C122.32 29.2927 121.762 29.184 121.272 28.9667C120.782 28.7451 120.394 28.4191 120.109 27.9887C119.828 27.554 119.687 27.0128 119.687 26.3651C119.687 25.8197 119.787 25.3616 119.987 24.9908C120.188 24.6201 120.46 24.3218 120.806 24.0959C121.151 23.8701 121.543 23.6996 121.982 23.5846C122.425 23.4695 122.889 23.3885 123.375 23.3417C123.946 23.282 124.406 23.2266 124.756 23.1755C125.105 23.1201 125.359 23.0391 125.517 22.9326C125.674 22.826 125.753 22.6684 125.753 22.4596V22.4212C125.753 22.0164 125.625 21.7032 125.369 21.4816C125.118 21.26 124.76 21.1492 124.296 21.1492C123.806 21.1492 123.416 21.2579 123.126 21.4752C122.836 21.6883 122.644 21.9567 122.551 22.2806L120.032 22.076C120.16 21.4795 120.411 20.9638 120.786 20.5292C121.161 20.0903 121.645 19.7536 122.237 19.5192C122.834 19.2806 123.524 19.1613 124.308 19.1613C124.854 19.1613 125.376 19.2252 125.874 19.353C126.377 19.4809 126.823 19.679 127.21 19.9475C127.602 20.216 127.911 20.5611 128.137 20.983C128.363 21.4006 128.476 21.9013 128.476 22.4851V29.1073H125.894V27.7458H125.817C125.659 28.0526 125.448 28.3232 125.184 28.5576C124.92 28.7877 124.602 28.9688 124.232 29.1009C123.861 29.2287 123.433 29.2927 122.947 29.2927ZM123.727 27.4134C124.127 27.4134 124.481 27.3346 124.788 27.1769C125.095 27.015 125.335 26.7976 125.51 26.5249C125.685 26.2522 125.772 25.9432 125.772 25.5981V24.5562C125.687 24.6116 125.57 24.6627 125.421 24.7096C125.276 24.7522 125.112 24.7927 124.928 24.831C124.745 24.8651 124.562 24.8971 124.379 24.9269C124.195 24.9525 124.029 24.9759 123.88 24.9972C123.561 25.0441 123.281 25.1187 123.043 25.2209C122.804 25.3232 122.619 25.4617 122.487 25.6364C122.355 25.8069 122.289 26.0199 122.289 26.2756C122.289 26.6464 122.423 26.9297 122.691 27.1258C122.964 27.3175 123.309 27.4134 123.727 27.4134ZM130.589 29.1073V19.2891H133.312V29.1073H130.589ZM131.956 18.0235C131.552 18.0235 131.204 17.8893 130.915 17.6208C130.629 17.3481 130.486 17.0221 130.486 16.6428C130.486 16.2678 130.629 15.9461 130.915 15.6776C131.204 15.4049 131.552 15.2685 131.956 15.2685C132.361 15.2685 132.706 15.4049 132.992 15.6776C133.282 15.9461 133.427 16.2678 133.427 16.6428C133.427 17.0221 133.282 17.3481 132.992 17.6208C132.706 17.8893 132.361 18.0235 131.956 18.0235ZM143.662 22.0888L141.169 22.2422C141.126 22.0292 141.035 21.8374 140.894 21.667C140.754 21.4922 140.568 21.3537 140.338 21.2515C140.112 21.1449 139.842 21.0917 139.526 21.0917C139.104 21.0917 138.749 21.1812 138.459 21.3601C138.169 21.5349 138.024 21.7692 138.024 22.0633C138.024 22.2976 138.118 22.4958 138.305 22.6577C138.493 22.8197 138.815 22.9496 139.271 23.0476L141.048 23.4056C142.002 23.6016 142.714 23.917 143.183 24.3516C143.651 24.7863 143.886 25.3573 143.886 26.0647C143.886 26.7082 143.696 27.2728 143.317 27.7586C142.942 28.2444 142.426 28.6236 141.77 28.8964C141.118 29.1648 140.366 29.2991 139.513 29.2991C138.214 29.2991 137.178 29.0285 136.407 28.4873C135.64 27.9418 135.19 27.2003 135.058 26.2628L137.737 26.1222C137.817 26.5185 138.013 26.8211 138.325 27.0299C138.636 27.2344 139.034 27.3367 139.52 27.3367C139.997 27.3367 140.381 27.2451 140.67 27.0618C140.964 26.8743 141.114 26.6336 141.118 26.3395C141.114 26.0924 141.009 25.89 140.805 25.7323C140.6 25.5704 140.285 25.4468 139.859 25.3616L138.158 25.0228C137.2 24.831 136.486 24.4986 136.017 24.0256C135.553 23.5526 135.32 22.9496 135.32 22.2167C135.32 21.586 135.491 21.0427 135.832 20.5867C136.177 20.1307 136.661 19.7792 137.283 19.532C137.909 19.2849 138.642 19.1613 139.482 19.1613C140.722 19.1613 141.697 19.4234 142.409 19.9475C143.125 20.4716 143.543 21.1854 143.662 22.0888Z" fill="black"/>
</svg>
