<svg width="44" height="45" viewBox="0 0 44 45" fill="none" xmlns="http://www.w3.org/2000/svg">
<circle cx="22" cy="22.1073" r="22" fill="#FFF4E6"/>
<path d="M22.2382 26.7914H20.7538C20.5978 26.7936 20.449 26.8572 20.3395 26.9683C20.23 27.0794 20.1686 27.2291 20.1686 27.3851C20.1686 27.5411 20.23 27.6908 20.3395 27.8019C20.449 27.913 20.5978 27.9766 20.7538 27.9789H22.2382C22.3941 27.9766 22.543 27.913 22.6525 27.8019C22.762 27.6908 22.8234 27.5411 22.8234 27.3851C22.8234 27.2291 22.762 27.0794 22.6525 26.9683C22.543 26.8572 22.3941 26.7936 22.2382 26.7914Z" fill="#E8590C"/>
<path d="M24.6293 26.7914C24.4733 26.7935 24.3244 26.857 24.2148 26.9681C24.1052 27.0792 24.0437 27.229 24.0437 27.3851C24.0437 27.5412 24.1052 27.691 24.2148 27.8021C24.3244 27.9132 24.4733 27.9767 24.6294 27.9789C24.7854 27.9767 24.9344 27.9132 25.044 27.8021C25.1536 27.691 25.215 27.5412 25.215 27.3851C25.215 27.229 25.1536 27.0792 25.044 26.9681C24.9343 26.857 24.7854 26.7935 24.6293 26.7914Z" fill="#E8590C"/>
<path d="M28.9197 20.629C28.7783 20.5309 28.6114 20.4758 28.4393 20.4704V18.5448C28.4351 18.3245 28.3835 18.1076 28.288 17.909C28.1924 17.7103 28.0552 17.5346 27.8857 17.3938C27.7162 17.2529 27.5183 17.1502 27.3055 17.0927C27.0927 17.0352 26.8701 17.0242 26.6527 17.0605L26.7945 16.262C26.8613 15.8743 26.7724 15.476 26.5471 15.1535C26.3217 14.831 25.9782 14.6106 25.5912 14.5401L24.7137 14.3858C24.4754 14.3431 24.2301 14.3597 23.9997 14.4343C23.7692 14.5088 23.5607 14.6389 23.3925 14.8131V14.0917C23.392 13.6982 23.2355 13.3209 22.9572 13.0426C22.6789 12.7643 22.3016 12.6078 21.9081 12.6073H21.0175C20.6239 12.6078 20.2466 12.7643 19.9684 13.0426C19.6901 13.3209 19.5335 13.6982 19.5331 14.0917V15.903C19.1382 15.8693 18.7417 15.8593 18.3456 15.873C17.952 15.8734 17.5748 16.03 17.2965 16.3082C17.0182 16.5865 16.8617 16.9638 16.8612 17.3573V20.4704C16.7347 20.4749 16.6106 20.5062 16.4972 20.5623C16.3837 20.6183 16.2835 20.6979 16.2031 20.7957C16.1227 20.8935 16.0641 21.0072 16.031 21.1294C15.9979 21.2516 15.9912 21.3794 16.0113 21.5043L17.6115 31.1112C17.6346 31.2498 17.7061 31.3757 17.8134 31.4666C17.9206 31.5574 18.0566 31.6073 18.1971 31.6073H27.1034C27.2439 31.6073 27.3799 31.5574 27.4872 31.4666C27.5944 31.3757 27.6659 31.2498 27.689 31.1111L29.2892 21.5043C29.318 21.3383 29.2984 21.1676 29.2329 21.0124C29.1674 20.8573 29.0587 20.7242 28.9197 20.629ZM27.2518 18.5448V20.9014C26.7674 21.0618 26.2711 21.1837 25.7675 21.2659V18.5448C25.7682 18.4663 25.7997 18.3912 25.8552 18.3357C25.9107 18.2802 25.9858 18.2487 26.0643 18.248H26.955C27.0337 18.2481 27.1091 18.2794 27.1648 18.335C27.2204 18.3907 27.2517 18.4661 27.2518 18.5448ZM24.1641 15.7958C24.1704 15.7573 24.1843 15.7205 24.2051 15.6875C24.2258 15.6544 24.253 15.6259 24.2849 15.6034C24.3168 15.581 24.3529 15.5652 24.391 15.5569C24.4291 15.5486 24.4685 15.5481 24.5069 15.5552L25.3843 15.7094C25.4619 15.7233 25.5308 15.7674 25.576 15.832C25.6211 15.8966 25.6388 15.9765 25.6252 16.0541L25.4203 17.2085C25.2195 17.3075 25.0434 17.4502 24.9048 17.626C24.7662 17.8018 24.6685 18.0063 24.619 18.2246C24.5446 18.2448 24.5925 21.2736 24.58 21.4157C24.1078 21.4681 23.6332 21.4959 23.1581 21.499C23.3069 20.6553 24.0013 16.7183 24.1641 15.7958ZM20.7206 14.0917C20.7207 14.013 20.752 13.9375 20.8076 13.8819C20.8633 13.8262 20.9388 13.7949 21.0175 13.7948H21.9081C21.9868 13.7949 22.0622 13.8262 22.1179 13.8819C22.1735 13.9375 22.2049 14.013 22.205 14.0917V20.0659L21.9532 21.4931C21.5413 21.4883 21.1299 21.4624 20.7206 21.4156V14.0917ZM18.3456 17.0605H19.2362C19.3149 17.0606 19.3904 17.0919 19.446 17.1475C19.5017 17.2032 19.533 17.2786 19.5331 17.3573V21.2662C19.0294 21.1847 18.533 21.063 18.0487 20.9024V17.3573C18.0488 17.2786 18.0801 17.2032 18.1358 17.1475C18.1914 17.0919 18.2669 17.0606 18.3456 17.0605ZM26.6004 30.4198H18.7001L17.278 21.8815C20.2649 22.9934 25.0414 22.9927 28.0226 21.8813L26.6004 30.4198Z" fill="#E8590C"/>
<path d="M22.2382 26.7914H20.7538C20.5978 26.7936 20.449 26.8572 20.3395 26.9683C20.23 27.0794 20.1686 27.2291 20.1686 27.3851C20.1686 27.5411 20.23 27.6908 20.3395 27.8019C20.449 27.913 20.5978 27.9766 20.7538 27.9789H22.2382C22.3941 27.9766 22.543 27.913 22.6525 27.8019C22.762 27.6908 22.8234 27.5411 22.8234 27.3851C22.8234 27.2291 22.762 27.0794 22.6525 26.9683C22.543 26.8572 22.3941 26.7936 22.2382 26.7914Z" stroke="#E8590C" stroke-width="0.6"/>
<path d="M24.6293 26.7914C24.4733 26.7935 24.3244 26.857 24.2148 26.9681C24.1052 27.0792 24.0437 27.229 24.0437 27.3851C24.0437 27.5412 24.1052 27.691 24.2148 27.8021C24.3244 27.9132 24.4733 27.9767 24.6294 27.9789C24.7854 27.9767 24.9344 27.9132 25.044 27.8021C25.1536 27.691 25.215 27.5412 25.215 27.3851C25.215 27.229 25.1536 27.0792 25.044 26.9681C24.9343 26.857 24.7854 26.7935 24.6293 26.7914Z" stroke="#E8590C" stroke-width="0.6"/>
<path d="M28.9197 20.629C28.7783 20.5309 28.6114 20.4758 28.4393 20.4704V18.5448C28.4351 18.3245 28.3835 18.1076 28.288 17.909C28.1924 17.7103 28.0552 17.5346 27.8857 17.3938C27.7162 17.2529 27.5183 17.1502 27.3055 17.0927C27.0927 17.0352 26.8701 17.0242 26.6527 17.0605L26.7945 16.262C26.8613 15.8743 26.7724 15.476 26.5471 15.1535C26.3217 14.831 25.9782 14.6106 25.5912 14.5401L24.7137 14.3858C24.4754 14.3431 24.2301 14.3597 23.9997 14.4343C23.7692 14.5088 23.5607 14.6389 23.3925 14.8131V14.0917C23.392 13.6982 23.2355 13.3209 22.9572 13.0426C22.6789 12.7643 22.3016 12.6078 21.9081 12.6073H21.0175C20.6239 12.6078 20.2466 12.7643 19.9684 13.0426C19.6901 13.3209 19.5335 13.6982 19.5331 14.0917V15.903C19.1382 15.8693 18.7417 15.8593 18.3456 15.873C17.952 15.8734 17.5748 16.03 17.2965 16.3082C17.0182 16.5865 16.8617 16.9638 16.8612 17.3573V20.4704C16.7347 20.4749 16.6106 20.5062 16.4972 20.5623C16.3837 20.6183 16.2835 20.6979 16.2031 20.7957C16.1227 20.8935 16.0641 21.0072 16.031 21.1294C15.9979 21.2516 15.9912 21.3794 16.0113 21.5043L17.6115 31.1112C17.6346 31.2498 17.7061 31.3757 17.8134 31.4666C17.9206 31.5574 18.0566 31.6073 18.1971 31.6073H27.1034C27.2439 31.6073 27.3799 31.5574 27.4872 31.4666C27.5944 31.3757 27.6659 31.2498 27.689 31.1111L29.2892 21.5043C29.318 21.3383 29.2984 21.1676 29.2329 21.0124C29.1674 20.8573 29.0587 20.7242 28.9197 20.629ZM27.2518 18.5448V20.9014C26.7674 21.0618 26.2711 21.1837 25.7675 21.2659V18.5448C25.7682 18.4663 25.7997 18.3912 25.8552 18.3357C25.9107 18.2802 25.9858 18.2487 26.0643 18.248H26.955C27.0337 18.2481 27.1091 18.2794 27.1648 18.335C27.2204 18.3907 27.2517 18.4661 27.2518 18.5448ZM24.1641 15.7958C24.1704 15.7573 24.1843 15.7205 24.2051 15.6875C24.2258 15.6544 24.253 15.6259 24.2849 15.6034C24.3168 15.581 24.3529 15.5652 24.391 15.5569C24.4291 15.5486 24.4685 15.5481 24.5069 15.5552L25.3843 15.7094C25.4619 15.7233 25.5308 15.7674 25.576 15.832C25.6211 15.8966 25.6388 15.9765 25.6252 16.0541L25.4203 17.2085C25.2195 17.3075 25.0434 17.4502 24.9048 17.626C24.7662 17.8018 24.6685 18.0063 24.619 18.2246C24.5446 18.2448 24.5925 21.2736 24.58 21.4157C24.1078 21.4681 23.6332 21.4959 23.1581 21.499C23.3069 20.6553 24.0013 16.7183 24.1641 15.7958ZM20.7206 14.0917C20.7207 14.013 20.752 13.9375 20.8076 13.8819C20.8633 13.8262 20.9388 13.7949 21.0175 13.7948H21.9081C21.9868 13.7949 22.0622 13.8262 22.1179 13.8819C22.1735 13.9375 22.2049 14.013 22.205 14.0917V20.0659L21.9532 21.4931C21.5413 21.4883 21.1299 21.4624 20.7206 21.4156V14.0917ZM18.3456 17.0605H19.2362C19.3149 17.0606 19.3904 17.0919 19.446 17.1475C19.5017 17.2032 19.533 17.2786 19.5331 17.3573V21.2662C19.0294 21.1847 18.533 21.063 18.0487 20.9024V17.3573C18.0488 17.2786 18.0801 17.2032 18.1358 17.1475C18.1914 17.0919 18.2669 17.0606 18.3456 17.0605ZM26.6004 30.4198H18.7001L17.278 21.8815C20.2649 22.9934 25.0414 22.9927 28.0226 21.8813L26.6004 30.4198Z" stroke="#E8590C" stroke-width="0.6"/>
</svg>
