<svg width="223" height="45" viewBox="0 0 223 45" fill="none" xmlns="http://www.w3.org/2000/svg">
<circle cx="22" cy="22.1073" r="22" fill="#FFF4E6"/>
<g clip-path="url(#clip0_41_1482)">
<path d="M18.3608 15.87H26.3608V13.9576C26.3608 13.704 26.2555 13.4608 26.0679 13.2815C25.8804 13.1021 25.6261 13.0014 25.3608 13.0014H19.3608C19.0956 13.0014 18.8413 13.1021 18.6537 13.2815C18.4662 13.4608 18.3608 13.704 18.3608 13.9576V15.87Z" stroke="#E8590C" stroke-width="2" stroke-linecap="round" stroke-linejoin="round"/>
<path d="M26.3608 15.87L27.4548 17.552C28.0469 18.4617 28.3608 19.5117 28.3608 20.5832V28.3008C28.3608 28.808 28.1501 29.2945 27.7751 29.6531C27.4 30.0118 26.8913 30.2132 26.3608 30.2132H18.3608C17.8304 30.2132 17.3217 30.0118 16.9466 29.6531C16.5716 29.2945 16.3608 28.808 16.3608 28.3008V20.5832C16.3609 19.5117 16.6748 18.4617 17.2668 17.552L18.3608 15.87" stroke="#E8590C" stroke-width="2" stroke-linecap="round" stroke-linejoin="round"/>
<path d="M20.3608 25.4322C20.3608 25.9394 20.5716 26.4258 20.9466 26.7845C21.3217 27.1431 21.8304 27.3446 22.3608 27.3446C22.8913 27.3446 23.4 27.1431 23.7751 26.7845C24.1501 26.4258 24.3608 25.9394 24.3608 25.4322C24.3608 24.925 24.1501 24.4385 23.7751 24.0799C23.4 23.7212 22.8913 23.5197 22.3608 23.5197C21.8304 23.5197 21.3217 23.7212 20.9466 24.0799C20.5716 24.4385 20.3608 24.925 20.3608 25.4322Z" stroke="#E8590C" stroke-width="2" stroke-linecap="round" stroke-linejoin="round"/>
<path d="M20.3608 19.6949H24.3608" stroke="#E8590C" stroke-width="2" stroke-linecap="round" stroke-linejoin="round"/>
</g>
<path d="M53.1378 16.0164H56.5511L60.1562 24.8118H60.3097L63.9148 16.0164H67.3281V29.1073H64.6435V20.5867H64.5348L61.147 29.0434H59.3189L55.9311 20.5547H55.8224V29.1073H53.1378V16.0164ZM73.9934 29.2991C73.0005 29.2991 72.1419 29.0881 71.4174 28.6662C70.6973 28.2401 70.1412 27.6478 69.7491 26.8893C69.3571 26.1265 69.161 25.2422 69.161 24.2366C69.161 23.2224 69.3571 22.336 69.7491 21.5775C70.1412 20.8147 70.6973 20.2224 71.4174 19.8005C72.1419 19.3743 73.0005 19.1613 73.9934 19.1613C74.9863 19.1613 75.8429 19.3743 76.563 19.8005C77.2875 20.2224 77.8457 20.8147 78.2377 21.5775C78.6298 22.336 78.8258 23.2224 78.8258 24.2366C78.8258 25.2422 78.6298 26.1265 78.2377 26.8893C77.8457 27.6478 77.2875 28.2401 76.563 28.6662C75.8429 29.0881 74.9863 29.2991 73.9934 29.2991ZM74.0062 27.1897C74.4579 27.1897 74.835 27.0618 75.1376 26.8062C75.4402 26.5462 75.6681 26.1925 75.8216 25.7451C75.9792 25.2976 76.0581 24.7884 76.0581 24.2174C76.0581 23.6464 75.9792 23.1371 75.8216 22.6897C75.6681 22.2422 75.4402 21.8885 75.1376 21.6286C74.835 21.3687 74.4579 21.2387 74.0062 21.2387C73.5502 21.2387 73.1667 21.3687 72.8556 21.6286C72.5488 21.8885 72.3166 22.2422 72.1589 22.6897C72.0055 23.1371 71.9288 23.6464 71.9288 24.2174C71.9288 24.7884 72.0055 25.2976 72.1589 25.7451C72.3166 26.1925 72.5488 26.5462 72.8556 26.8062C73.1667 27.0618 73.5502 27.1897 74.0062 27.1897ZM83.3194 16.0164V29.1073H80.5964V16.0164H83.3194ZM88.2237 23.4312V29.1073H85.5007V16.0164H88.147V21.0214H88.2621C88.4837 20.4418 88.8416 19.988 89.3359 19.6599C89.8303 19.3275 90.4503 19.1613 91.196 19.1613C91.8778 19.1613 92.4723 19.3104 92.9794 19.6087C93.4908 19.9028 93.8871 20.3268 94.1683 20.8807C94.4538 21.4305 94.5945 22.0888 94.5902 22.8559V29.1073H91.8672V23.3417C91.8714 22.7366 91.718 22.2657 91.407 21.929C91.1001 21.5924 90.6697 21.4241 90.1158 21.4241C89.745 21.4241 89.4169 21.5029 89.1314 21.6606C88.8501 21.8182 88.6286 22.0484 88.4666 22.3509C88.3089 22.6492 88.228 23.0093 88.2237 23.4312ZM101.169 29.2991C100.176 29.2991 99.3176 29.0881 98.5932 28.6662C97.873 28.2401 97.3169 27.6478 96.9249 26.8893C96.5328 26.1265 96.3368 25.2422 96.3368 24.2366C96.3368 23.2224 96.5328 22.336 96.9249 21.5775C97.3169 20.8147 97.873 20.2224 98.5932 19.8005C99.3176 19.3743 100.176 19.1613 101.169 19.1613C102.162 19.1613 103.019 19.3743 103.739 19.8005C104.463 20.2224 105.021 20.8147 105.414 21.5775C105.806 22.336 106.002 23.2224 106.002 24.2366C106.002 25.2422 105.806 26.1265 105.414 26.8893C105.021 27.6478 104.463 28.2401 103.739 28.6662C103.019 29.0881 102.162 29.2991 101.169 29.2991ZM101.182 27.1897C101.634 27.1897 102.011 27.0618 102.313 26.8062C102.616 26.5462 102.844 26.1925 102.997 25.7451C103.155 25.2976 103.234 24.7884 103.234 24.2174C103.234 23.6464 103.155 23.1371 102.997 22.6897C102.844 22.2422 102.616 21.8885 102.313 21.6286C102.011 21.3687 101.634 21.2387 101.182 21.2387C100.726 21.2387 100.343 21.3687 100.031 21.6286C99.7246 21.8885 99.4924 22.2422 99.3347 22.6897C99.1813 23.1371 99.1046 23.6464 99.1046 24.2174C99.1046 24.7884 99.1813 25.2976 99.3347 25.7451C99.4924 26.1925 99.7246 26.5462 100.031 26.8062C100.343 27.0618 100.726 27.1897 101.182 27.1897ZM115.941 22.0888L113.448 22.2422C113.406 22.0292 113.314 21.8374 113.173 21.667C113.033 21.4922 112.847 21.3537 112.617 21.2515C112.392 21.1449 112.121 21.0917 111.806 21.0917C111.384 21.0917 111.028 21.1812 110.738 21.3601C110.448 21.5349 110.303 21.7692 110.303 22.0633C110.303 22.2976 110.397 22.4958 110.585 22.6577C110.772 22.8197 111.094 22.9496 111.55 23.0476L113.327 23.4056C114.281 23.6016 114.993 23.917 115.462 24.3516C115.931 24.7863 116.165 25.3573 116.165 26.0647C116.165 26.7082 115.975 27.2728 115.596 27.7586C115.221 28.2444 114.705 28.6236 114.049 28.8964C113.397 29.1648 112.645 29.2991 111.793 29.2991C110.493 29.2991 109.458 29.0285 108.686 28.4873C107.919 27.9418 107.47 27.2003 107.338 26.2628L110.016 26.1222C110.097 26.5185 110.293 26.8211 110.604 27.0299C110.915 27.2344 111.313 27.3367 111.799 27.3367C112.276 27.3367 112.66 27.2451 112.95 27.0618C113.244 26.8743 113.393 26.6336 113.397 26.3395C113.393 26.0924 113.289 25.89 113.084 25.7323C112.879 25.5704 112.564 25.4468 112.138 25.3616L110.438 25.0228C109.479 24.831 108.765 24.4986 108.296 24.0256C107.832 23.5526 107.6 22.9496 107.6 22.2167C107.6 21.586 107.77 21.0427 108.111 20.5867C108.456 20.1307 108.94 19.7792 109.562 19.532C110.188 19.2849 110.921 19.1613 111.761 19.1613C113.001 19.1613 113.977 19.4234 114.688 19.9475C115.404 20.4716 115.822 21.1854 115.941 22.0888Z" fill="black"/>
<path d="M124.992 25.3971V18.6755H126.33V25.3971H124.992ZM122.303 22.7025V21.3701H129.024V22.7025H122.303ZM135.148 27.1073V16.9255H138.777C139.566 16.9255 140.221 17.0614 140.741 17.3332C141.265 17.6049 141.656 17.9811 141.914 18.4617C142.173 18.939 142.302 19.4908 142.302 20.1172C142.302 20.7403 142.171 21.2889 141.909 21.7628C141.651 22.2335 141.26 22.5997 140.736 22.8616C140.216 23.1234 139.561 23.2543 138.772 23.2543H136.023V21.9319H138.633C139.13 21.9319 139.535 21.8606 139.846 21.7181C140.161 21.5756 140.391 21.3684 140.537 21.0966C140.683 20.8249 140.756 20.4984 140.756 20.1172C140.756 19.7328 140.681 19.3997 140.532 19.118C140.386 18.8362 140.156 18.6208 139.841 18.4716C139.53 18.3192 139.12 18.243 138.613 18.243H136.684V27.1073H135.148ZM140.174 22.5135L142.69 27.1073H140.94L138.474 22.5135H140.174ZM147.174 28.38V15.6528H147.99V28.38H147.174ZM149.725 19.6002C149.672 19.1296 149.453 18.765 149.068 18.5064C148.684 18.2446 148.2 18.1137 147.617 18.1137C147.199 18.1137 146.838 18.18 146.533 18.3126C146.228 18.4418 145.991 18.6208 145.822 18.8495C145.656 19.0749 145.573 19.3317 145.573 19.6201C145.573 19.862 145.63 20.0708 145.742 20.2465C145.858 20.4222 146.009 20.5697 146.195 20.689C146.384 20.805 146.586 20.9028 146.801 20.9823C147.017 21.0585 147.224 21.1215 147.423 21.1712L148.417 21.4297C148.742 21.5093 149.075 21.617 149.416 21.7529C149.758 21.8888 150.074 22.0678 150.366 22.2898C150.658 22.5119 150.893 22.787 151.072 23.1151C151.254 23.4432 151.345 23.836 151.345 24.2934C151.345 24.8701 151.196 25.3822 150.898 25.8296C150.603 26.277 150.174 26.63 149.61 26.8885C149.05 27.1471 148.372 27.2763 147.577 27.2763C146.815 27.2763 146.155 27.1554 145.598 26.9134C145.041 26.6715 144.606 26.3284 144.291 25.8843C143.976 25.4368 143.802 24.9065 143.769 24.2934H145.31C145.34 24.6613 145.459 24.9679 145.668 25.2131C145.88 25.4551 146.15 25.6357 146.478 25.755C146.81 25.871 147.173 25.929 147.567 25.929C148.001 25.929 148.387 25.8611 148.725 25.7252C149.067 25.586 149.335 25.3938 149.531 25.1485C149.726 24.8999 149.824 24.6099 149.824 24.2785C149.824 23.9769 149.738 23.7299 149.566 23.5377C149.396 23.3455 149.166 23.1864 148.874 23.0604C148.586 22.9345 148.26 22.8234 147.895 22.7273L146.692 22.3992C145.877 22.1771 145.23 21.8507 144.753 21.4198C144.279 20.9889 144.042 20.4189 144.042 19.7096C144.042 19.1229 144.201 18.6109 144.519 18.1734C144.838 17.7359 145.268 17.3961 145.812 17.1542C146.356 16.9089 146.969 16.7863 147.651 16.7863C148.341 16.7863 148.949 16.9073 149.476 17.1492C150.006 17.3912 150.424 17.7243 150.729 18.1485C151.034 18.5694 151.193 19.0533 151.206 19.6002H149.725ZM156.747 27.1073V25.9937L160.192 22.4241C160.56 22.0363 160.863 21.6966 161.102 21.4049C161.344 21.1099 161.525 20.8298 161.644 20.5647C161.763 20.2995 161.823 20.0178 161.823 19.7195C161.823 19.3814 161.743 19.0898 161.584 18.8445C161.425 18.5959 161.208 18.4054 160.933 18.2728C160.658 18.1369 160.348 18.0689 160.003 18.0689C159.639 18.0689 159.321 18.1435 159.049 18.2927C158.777 18.4418 158.568 18.6523 158.422 18.9241C158.277 19.1958 158.204 19.514 158.204 19.8786H156.737C156.737 19.2588 156.88 18.7169 157.165 18.2529C157.45 17.7889 157.841 17.4293 158.338 17.1741C158.835 16.9155 159.4 16.7863 160.033 16.7863C160.673 16.7863 161.236 16.9139 161.724 17.1691C162.214 17.421 162.597 17.7657 162.872 18.2032C163.147 18.6374 163.285 19.1279 163.285 19.6748C163.285 20.0526 163.213 20.4222 163.071 20.7834C162.932 21.1447 162.688 21.5474 162.34 21.9915C161.992 22.4323 161.508 22.9676 160.888 23.5974L158.865 25.7153V25.7898H163.449V27.1073H156.747ZM167.287 25.7153L167.212 26.2572C167.162 26.6549 167.078 27.0692 166.959 27.5001C166.843 27.9342 166.722 28.3369 166.596 28.7082C166.473 29.0794 166.372 29.3743 166.292 29.5931H165.238C165.282 29.3876 165.341 29.1092 165.417 28.7579C165.494 28.4099 165.568 28.0204 165.641 27.5895C165.714 27.1587 165.769 26.7195 165.805 26.2721L165.855 25.7153H167.287ZM172.542 27.2763C171.756 27.273 171.085 27.0659 170.528 26.6549C169.971 26.2439 169.546 25.6457 169.251 24.8601C168.956 24.0746 168.808 23.1284 168.808 22.0214C168.808 20.9177 168.956 19.9747 169.251 19.1925C169.549 18.4103 169.976 17.8137 170.533 17.4028C171.093 16.9918 171.763 16.7863 172.542 16.7863C173.321 16.7863 173.988 16.9934 174.545 17.4077C175.102 17.8187 175.528 18.4153 175.823 19.1975C176.121 19.9764 176.27 20.9177 176.27 22.0214C176.27 23.1317 176.123 24.0796 175.828 24.8651C175.533 25.6473 175.107 26.2456 174.55 26.6599C173.993 27.0708 173.324 27.2763 172.542 27.2763ZM172.542 25.9489C173.231 25.9489 173.77 25.6125 174.157 24.9397C174.549 24.2669 174.744 23.2941 174.744 22.0214C174.744 21.1762 174.655 20.4619 174.476 19.8786C174.3 19.292 174.046 18.8478 173.715 18.5462C173.387 18.2413 172.996 18.0888 172.542 18.0888C171.856 18.0888 171.317 18.4269 170.926 19.103C170.535 19.7792 170.338 20.7519 170.334 22.0214C170.334 22.8698 170.422 23.5874 170.598 24.1741C170.777 24.7574 171.03 25.1999 171.358 25.5015C171.687 25.7998 172.081 25.9489 172.542 25.9489ZM181.579 27.2763C180.793 27.273 180.122 27.0659 179.565 26.6549C179.009 26.2439 178.583 25.6457 178.288 24.8601C177.993 24.0746 177.845 23.1284 177.845 22.0214C177.845 20.9177 177.993 19.9747 178.288 19.1925C178.586 18.4103 179.013 17.8137 179.57 17.4028C180.13 16.9918 180.8 16.7863 181.579 16.7863C182.358 16.7863 183.026 16.9934 183.582 17.4077C184.139 17.8187 184.565 18.4153 184.86 19.1975C185.158 19.9764 185.308 20.9177 185.308 22.0214C185.308 23.1317 185.16 24.0796 184.865 24.8651C184.57 25.6473 184.144 26.2456 183.587 26.6599C183.031 27.0708 182.361 27.2763 181.579 27.2763ZM181.579 25.9489C182.268 25.9489 182.807 25.6125 183.195 24.9397C183.586 24.2669 183.781 23.2941 183.781 22.0214C183.781 21.1762 183.692 20.4619 183.513 19.8786C183.337 19.292 183.084 18.8478 182.752 18.5462C182.424 18.2413 182.033 18.0888 181.579 18.0888C180.893 18.0888 180.354 18.4269 179.963 19.103C179.572 19.7792 179.375 20.7519 179.371 22.0214C179.371 22.8698 179.459 23.5874 179.635 24.1741C179.814 24.7574 180.067 25.1999 180.396 25.5015C180.724 25.7998 181.118 25.9489 181.579 25.9489ZM194.013 27.2614C193.274 27.2614 192.637 27.094 192.104 26.7593C191.573 26.4212 191.166 25.9555 190.881 25.3623C190.596 24.769 190.453 24.0895 190.453 23.3239C190.453 22.5484 190.599 21.8639 190.891 21.2707C191.182 20.6741 191.593 20.2084 192.124 19.8736C192.654 19.5389 193.279 19.3715 193.998 19.3715C194.578 19.3715 195.095 19.4792 195.549 19.6947C196.003 19.9068 196.369 20.2051 196.648 20.5895C196.929 20.974 197.097 21.4231 197.15 21.9368H195.703C195.624 21.5789 195.441 21.2707 195.156 21.0121C194.875 20.7536 194.497 20.6243 194.023 20.6243C193.608 20.6243 193.246 20.7337 192.934 20.9525C192.626 21.1679 192.385 21.4761 192.213 21.8772C192.041 22.2749 191.955 22.7456 191.955 23.2891C191.955 23.8459 192.039 24.3265 192.208 24.7309C192.377 25.1352 192.616 25.4484 192.924 25.6705C193.236 25.8926 193.602 26.0036 194.023 26.0036C194.304 26.0036 194.56 25.9522 194.788 25.8495C195.02 25.7434 195.214 25.5926 195.37 25.3971C195.529 25.2015 195.64 24.9662 195.703 24.6911H197.15C197.097 25.185 196.936 25.6258 196.668 26.0135C196.399 26.4013 196.04 26.7063 195.589 26.9283C195.141 27.1504 194.616 27.2614 194.013 27.2614ZM200.962 27.2763C200.478 27.2763 200.04 27.1868 199.649 27.0079C199.258 26.8256 198.948 26.5621 198.72 26.2174C198.494 25.8727 198.382 25.4501 198.382 24.9496C198.382 24.5188 198.464 24.1641 198.63 23.8857C198.796 23.6073 199.02 23.3869 199.301 23.2245C199.583 23.0621 199.898 22.9394 200.246 22.8566C200.594 22.7737 200.949 22.7108 201.31 22.6677C201.767 22.6146 202.138 22.5716 202.423 22.5384C202.709 22.5019 202.916 22.4439 203.045 22.3644C203.174 22.2849 203.239 22.1556 203.239 21.9766V21.9418C203.239 21.5076 203.116 21.1712 202.871 20.9326C202.629 20.6939 202.268 20.5746 201.787 20.5746C201.287 20.5746 200.892 20.6857 200.604 20.9077C200.319 21.1265 200.122 21.3701 200.012 21.6385L198.615 21.3204C198.781 20.8564 199.023 20.4818 199.341 20.1968C199.663 19.9084 200.032 19.6996 200.45 19.5704C200.867 19.4378 201.307 19.3715 201.767 19.3715C202.072 19.3715 202.395 19.408 202.737 19.4809C203.081 19.5505 203.403 19.6797 203.701 19.8687C204.003 20.0576 204.25 20.3277 204.442 20.679C204.634 21.027 204.73 21.4795 204.73 22.0363V27.1073H203.279V26.0633H203.219C203.123 26.2555 202.979 26.4444 202.786 26.63C202.594 26.8156 202.347 26.9698 202.046 27.0924C201.744 27.215 201.383 27.2763 200.962 27.2763ZM201.285 26.0832C201.696 26.0832 202.047 26.0019 202.339 25.8395C202.634 25.6771 202.858 25.465 203.01 25.2032C203.166 24.938 203.244 24.6546 203.244 24.353V23.3687C203.191 23.4217 203.088 23.4714 202.936 23.5178C202.786 23.5609 202.616 23.599 202.423 23.6322C202.231 23.662 202.044 23.6902 201.862 23.7167C201.679 23.7399 201.527 23.7598 201.404 23.7763C201.116 23.8128 200.852 23.8741 200.614 23.9603C200.378 24.0465 200.19 24.1707 200.047 24.3332C199.908 24.4922 199.838 24.7044 199.838 24.9695C199.838 25.3374 199.974 25.6158 200.246 25.8047C200.518 25.9903 200.864 26.0832 201.285 26.0832ZM209.569 27.2564C208.952 27.2564 208.402 27.099 207.918 26.7841C207.438 26.466 207.06 26.0135 206.785 25.4269C206.513 24.8369 206.377 24.1293 206.377 23.304C206.377 22.4787 206.515 21.7728 206.79 21.1861C207.068 20.5995 207.449 20.1504 207.933 19.8388C208.417 19.5273 208.966 19.3715 209.579 19.3715C210.053 19.3715 210.434 19.451 210.722 19.6101C211.014 19.7659 211.239 19.9482 211.398 20.157C211.561 20.3658 211.687 20.5498 211.776 20.7089H211.866V16.9255H213.352V27.1073H211.901V25.9191H211.776C211.687 26.0815 211.558 26.2671 211.388 26.4759C211.223 26.6847 210.994 26.867 210.702 27.0228C210.411 27.1786 210.033 27.2564 209.569 27.2564ZM209.897 25.9887C210.325 25.9887 210.686 25.876 210.981 25.6506C211.279 25.4219 211.504 25.1054 211.657 24.701C211.813 24.2967 211.891 23.826 211.891 23.2891C211.891 22.7588 211.814 22.2948 211.662 21.8971C211.509 21.4993 211.286 21.1894 210.991 20.9674C210.696 20.7453 210.331 20.6343 209.897 20.6343C209.45 20.6343 209.077 20.7503 208.778 20.9823C208.48 21.2143 208.255 21.5308 208.102 21.9319C207.953 22.3329 207.879 22.7853 207.879 23.2891C207.879 23.7995 207.955 24.2586 208.107 24.6662C208.26 25.0739 208.485 25.3971 208.783 25.6357C209.085 25.871 209.456 25.9887 209.897 25.9887ZM217.696 27.2763C217.212 27.2763 216.775 27.1868 216.384 27.0079C215.993 26.8256 215.683 26.5621 215.454 26.2174C215.229 25.8727 215.116 25.4501 215.116 24.9496C215.116 24.5188 215.199 24.1641 215.365 23.8857C215.53 23.6073 215.754 23.3869 216.036 23.2245C216.317 23.0621 216.632 22.9394 216.98 22.8566C217.328 22.7737 217.683 22.7108 218.044 22.6677C218.502 22.6146 218.873 22.5716 219.158 22.5384C219.443 22.5019 219.65 22.4439 219.779 22.3644C219.909 22.2849 219.973 22.1556 219.973 21.9766V21.9418C219.973 21.5076 219.851 21.1712 219.605 20.9326C219.363 20.6939 219.002 20.5746 218.521 20.5746C218.021 20.5746 217.627 20.6857 217.338 20.9077C217.053 21.1265 216.856 21.3701 216.747 21.6385L215.35 21.3204C215.515 20.8564 215.757 20.4818 216.075 20.1968C216.397 19.9084 216.767 19.6996 217.184 19.5704C217.602 19.4378 218.041 19.3715 218.502 19.3715C218.807 19.3715 219.13 19.408 219.471 19.4809C219.816 19.5505 220.137 19.6797 220.436 19.8687C220.737 20.0576 220.984 20.3277 221.176 20.679C221.369 21.027 221.465 21.4795 221.465 22.0363V27.1073H220.013V26.0633H219.953C219.857 26.2555 219.713 26.4444 219.521 26.63C219.329 26.8156 219.082 26.9698 218.78 27.0924C218.478 27.215 218.117 27.2763 217.696 27.2763ZM218.019 26.0832C218.43 26.0832 218.782 26.0019 219.073 25.8395C219.368 25.6771 219.592 25.465 219.744 25.2032C219.9 24.938 219.978 24.6546 219.978 24.353V23.3687C219.925 23.4217 219.822 23.4714 219.67 23.5178C219.521 23.5609 219.35 23.599 219.158 23.6322C218.966 23.662 218.778 23.6902 218.596 23.7167C218.414 23.7399 218.261 23.7598 218.139 23.7763C217.85 23.8128 217.587 23.8741 217.348 23.9603C217.113 24.0465 216.924 24.1707 216.781 24.3332C216.642 24.4922 216.573 24.7044 216.573 24.9695C216.573 25.3374 216.709 25.6158 216.98 25.8047C217.252 25.9903 217.598 26.0832 218.019 26.0832Z" fill="#E8590C"/>
<defs>
<clipPath id="clip0_41_1482">
<rect width="24" height="22.9491" fill="white" transform="translate(10.3608 10.1328)"/>
</clipPath>
</defs>
</svg>
