<svg width="25" height="24" viewBox="0 0 25 24" fill="none" xmlns="http://www.w3.org/2000/svg">
<g clip-path="url(#clip0_41_1485)">
<path d="M8.36084 5.87003H16.3608V3.9576C16.3608 3.704 16.2555 3.46078 16.0679 3.28146C15.8804 3.10213 15.6261 3.00139 15.3608 3.00139H9.36084C9.09562 3.00139 8.84127 3.10213 8.65373 3.28146C8.4662 3.46078 8.36084 3.704 8.36084 3.9576V5.87003Z" stroke="#E8590C" stroke-width="2" stroke-linecap="round" stroke-linejoin="round"/>
<path d="M16.3608 5.87004L17.4548 7.55202C18.0469 8.4617 18.3608 9.51175 18.3608 10.5832V18.3008C18.3608 18.808 18.1501 19.2945 17.7751 19.6531C17.4 20.0118 16.8913 20.2132 16.3608 20.2132H8.36084C7.83041 20.2132 7.3217 20.0118 6.94663 19.6531C6.57155 19.2945 6.36084 18.808 6.36084 18.3008V10.5832C6.36091 9.51175 6.67476 8.4617 7.26684 7.55202L8.36084 5.87004" stroke="#E8590C" stroke-width="2" stroke-linecap="round" stroke-linejoin="round"/>
<path d="M10.3608 15.4322C10.3608 15.9394 10.5716 16.4258 10.9466 16.7845C11.3217 17.1431 11.8304 17.3446 12.3608 17.3446C12.8913 17.3446 13.4 17.1431 13.7751 16.7845C14.1501 16.4258 14.3608 15.9394 14.3608 15.4322C14.3608 14.925 14.1501 14.4385 13.7751 14.0799C13.4 13.7212 12.8913 13.5197 12.3608 13.5197C11.8304 13.5197 11.3217 13.7212 10.9466 14.0799C10.5716 14.4385 10.3608 14.925 10.3608 15.4322Z" stroke="#E8590C" stroke-width="2" stroke-linecap="round" stroke-linejoin="round"/>
<path d="M10.3608 9.69489H14.3608" stroke="#E8590C" stroke-width="2" stroke-linecap="round" stroke-linejoin="round"/>
</g>
<defs>
<clipPath id="clip0_41_1485">
<rect width="24" height="22.9491" fill="white" transform="translate(0.36084 0.132751)"/>
</clipPath>
</defs>
</svg>
