<svg width="44" height="44" viewBox="0 0 44 44" fill="none" xmlns="http://www.w3.org/2000/svg">
<circle cx="22" cy="22" r="22" fill="#FFF4E6"/>
<path d="M11.4488 28.6714L11.4488 28.6717C11.4495 29.3686 11.7267 30.0366 12.2194 30.5293C12.7121 31.022 13.3802 31.2992 14.077 31.3H14.0773L29.9226 31.3L29.923 31.3C30.6198 31.2992 31.2878 31.0221 31.7805 30.5293C32.2733 30.0366 32.5504 29.3686 32.5512 28.6717V28.6714V26.4125C32.8849 26.2508 33.1677 25.9976 33.3652 25.6803C33.6011 25.3016 33.7016 24.8542 33.6504 24.411C33.5992 23.9678 33.3992 23.555 33.0832 23.2401C32.834 22.9918 32.5243 22.8159 32.1872 22.7283C32.3557 16.7145 27.352 12.2359 21.3903 12.7385C20.0803 12.7463 18.7855 13.0209 17.585 13.5456C16.3808 14.072 15.2969 14.8389 14.3999 15.7994C13.5029 16.7598 12.8116 17.8935 12.3686 19.1308C11.9555 20.2846 11.7663 21.5058 11.8104 22.729C11.4742 22.8169 11.1654 22.9925 10.9169 23.2402C10.6009 23.5551 10.401 23.9678 10.3498 24.411C10.2985 24.8541 10.3991 25.3016 10.6349 25.6803C10.8324 25.9975 11.1152 26.2507 11.4488 26.4125L11.4488 28.6714ZM30.7484 22.6178L13.2653 22.6178L13.2653 22.3203C13.2653 22.3202 13.2653 22.32 13.2653 22.3199C13.281 17.2859 17.6204 13.7239 22.5684 14.1795L22.5815 14.1807L22.5945 14.1807C23.7116 14.1859 24.8158 14.4194 25.8393 14.8669C26.8628 15.3143 27.784 15.9663 28.5464 16.7828C29.3088 17.5992 29.8962 18.5629 30.2726 19.6146C30.6174 20.578 30.7785 21.5967 30.7484 22.6178ZM32.229 24.6424L32.2284 24.6515L32.2284 24.6605C32.2283 24.7944 32.1751 24.9228 32.0805 25.0174C31.9858 25.1121 31.8575 25.1654 31.7236 25.1656H12.2816C12.1452 25.16 12.016 25.1022 11.921 25.0039C11.8249 24.9047 11.7712 24.7719 11.7712 24.6338C11.7712 24.4957 11.8249 24.3629 11.921 24.2637C12.016 24.1654 12.1452 24.1076 12.2816 24.102H31.7233C31.7924 24.1024 31.8608 24.1168 31.9241 24.1444C31.9877 24.1721 32.0449 24.2125 32.0923 24.2631C32.1397 24.3137 32.1763 24.3735 32.1998 24.4387C32.2233 24.5039 32.2332 24.5732 32.229 24.6424ZM31.1089 28.6711C31.1086 28.9857 30.9835 29.2873 30.761 29.5098C30.5386 29.7323 30.2369 29.8574 29.9223 29.8577H14.0777C13.763 29.8574 13.4614 29.7323 13.2389 29.5098C13.0165 29.2873 12.8914 28.9857 12.891 28.6711V26.6498H31.1089V28.6711Z" fill="#E8590C" stroke="#E8590C" stroke-width="0.6"/>
</svg>
