<svg width="44" height="45" viewBox="0 0 44 45" fill="none" xmlns="http://www.w3.org/2000/svg">
<circle cx="22" cy="22.1073" r="22" fill="#FFF4E6"/>
<g clip-path="url(#clip0_41_1483)">
<path d="M18.3608 15.87H26.3608V13.9576C26.3608 13.704 26.2555 13.4608 26.0679 13.2815C25.8804 13.1021 25.6261 13.0014 25.3608 13.0014H19.3608C19.0956 13.0014 18.8413 13.1021 18.6537 13.2815C18.4662 13.4608 18.3608 13.704 18.3608 13.9576V15.87Z" stroke="#E8590C" stroke-width="2" stroke-linecap="round" stroke-linejoin="round"/>
<path d="M26.3608 15.87L27.4548 17.552C28.0469 18.4617 28.3608 19.5117 28.3608 20.5832V28.3008C28.3608 28.808 28.1501 29.2945 27.7751 29.6531C27.4 30.0118 26.8913 30.2132 26.3608 30.2132H18.3608C17.8304 30.2132 17.3217 30.0118 16.9466 29.6531C16.5716 29.2945 16.3608 28.808 16.3608 28.3008V20.5832C16.3609 19.5117 16.6748 18.4617 17.2668 17.552L18.3608 15.87" stroke="#E8590C" stroke-width="2" stroke-linecap="round" stroke-linejoin="round"/>
<path d="M20.3608 25.4322C20.3608 25.9394 20.5716 26.4258 20.9466 26.7845C21.3217 27.1431 21.8304 27.3446 22.3608 27.3446C22.8913 27.3446 23.4 27.1431 23.7751 26.7845C24.1501 26.4258 24.3608 25.9394 24.3608 25.4322C24.3608 24.925 24.1501 24.4385 23.7751 24.0799C23.4 23.7212 22.8913 23.5197 22.3608 23.5197C21.8304 23.5197 21.3217 23.7212 20.9466 24.0799C20.5716 24.4385 20.3608 24.925 20.3608 25.4322Z" stroke="#E8590C" stroke-width="2" stroke-linecap="round" stroke-linejoin="round"/>
<path d="M20.3608 19.6949H24.3608" stroke="#E8590C" stroke-width="2" stroke-linecap="round" stroke-linejoin="round"/>
</g>
<defs>
<clipPath id="clip0_41_1483">
<rect width="24" height="22.9491" fill="white" transform="translate(10.3608 10.1328)"/>
</clipPath>
</defs>
</svg>
